<?xml version="1.0" encoding="UTF-8"?>
<svg xmlns="http://www.w3.org/2000/svg" viewBox="0 0 128 128">
  <defs>
    <linearGradient id="bg" x1="0%" x2="0%" y1="0%" y2="100%">
      <stop offset="0%" stop-color="#2b5876" />
      <stop offset="100%" stop-color="#4e4376" />
    </linearGradient>
  </defs>
  <rect width="128" height="128" rx="16" ry="16" fill="url(#bg)" />
  <g fill="#ffffff" opacity="0.92">
    <path d="M30 82c0-18 14-32 32-32s32 14 32 32h-8c0-13-11-24-24-24s-24 11-24 24z" />
    <path d="M46 82c0-8 6-14 14-14s14 6 14 14h-8c0-3-3-6-6-6s-6 3-6 6z" />
    <path d="M24 48h80v10H24z" />
    <path d="M64 26c7 0 12 5 12 12s-5 12-12 12-12-5-12-12 5-12 12-12zm0 8c-2 0-4 2-4 4s2 4 4 4 4-2 4-4-2-4-4-4z" />
    <path d="M30 94h68v8H30z" />
  </g>
</svg>
